<svg width="70" height="65" viewBox="0 0 70 65" fill="none" xmlns="http://www.w3.org/2000/svg">
<path d="M10.6055 29.1288L34.7343 5L58.863 29.1288" stroke="white" stroke-width="6.16054"/>
<path d="M43.1349 31.3429C43.1349 35.7849 39.5339 39.3859 35.092 39.3859C30.65 39.3859 27.049 35.7849 27.049 31.3429C27.049 26.9009 30.65 23.3 35.092 23.3C39.5339 23.3 43.1349 26.9009 43.1349 31.3429Z" stroke="white" stroke-width="6.16054"/>
<path d="M5.8503 58.5698C4.8703 58.5698 3.9695 58.3421 3.14788 57.8867C2.33616 57.4314 1.68778 56.7978 1.20273 55.9861C0.727576 55.1645 0.49 54.2439 0.49 53.2243C0.49 52.2047 0.727576 51.2891 1.20273 50.4773C1.68778 49.6656 2.33616 49.0321 3.14788 48.5767C3.9695 48.1214 4.8703 47.8937 5.8503 47.8937C6.8303 47.8937 7.72616 48.1214 8.53788 48.5767C9.3595 49.0321 10.0029 49.6656 10.4682 50.4773C10.9433 51.2891 11.1809 52.2047 11.1809 53.2243C11.1809 54.2439 10.9433 55.1645 10.4682 55.9861C9.99303 56.7978 9.3496 57.4314 8.53788 57.8867C7.72616 58.3421 6.8303 58.5698 5.8503 58.5698ZM5.8503 56.2534C6.68182 56.2534 7.34505 55.9762 7.84 55.4219C8.34485 54.8675 8.59727 54.135 8.59727 53.2243C8.59727 52.3037 8.34485 51.5712 7.84 51.0267C7.34505 50.4724 6.68182 50.1952 5.8503 50.1952C5.00889 50.1952 4.33576 50.4674 3.83091 51.0119C3.33596 51.5563 3.08849 52.2938 3.08849 53.2243C3.08849 54.1449 3.33596 54.8824 3.83091 55.4367C4.33576 55.9812 5.00889 56.2534 5.8503 56.2534ZM24.398 48.0422V58.4658H21.8589V52.2146L19.5277 58.4658H17.4786L15.1326 52.1998V58.4658H12.5935V48.0422H15.5929L18.518 55.2585L21.4135 48.0422H24.398ZM32.7127 56.6246H28.8224L28.1988 58.4658H25.5409L29.3124 48.0422H32.2524L36.0239 58.4658H33.3364L32.7127 56.6246ZM32.0594 54.6646L30.7676 50.8485L29.4906 54.6646H32.0594ZM46.1997 48.0422V58.4658H43.6606V54.1746H39.7109V58.4658H37.1718V48.0422H39.7109V52.1255H43.6606V48.0422H46.1997ZM54.5214 56.6246H50.6311L50.0075 58.4658H47.3496L51.1211 48.0422H54.0611L57.8326 58.4658H55.1451L54.5214 56.6246ZM53.8681 54.6646L52.5763 50.8485L51.2993 54.6646H53.8681ZM68.3054 58.4658H65.7663L61.5196 52.0364V58.4658H58.9805V48.0422H61.5196L65.7663 54.5013V48.0422H68.3054V58.4658Z" fill="white"/>
</svg>
