<svg width="56" height="52" viewBox="0 0 56 52" fill="none" xmlns="http://www.w3.org/2000/svg">
<path d="M8.48438 23.303L27.7874 4L47.0904 23.303" stroke="#004665" stroke-width="4.92843"/>
<path d="M34.5077 25.0743C34.5077 28.6279 31.627 31.5087 28.0734 31.5087C24.5198 31.5087 21.639 28.6279 21.639 25.0743C21.639 21.5208 24.5198 18.64 28.0734 18.64C31.627 18.64 34.5077 21.5208 34.5077 25.0743Z" stroke="#004665" stroke-width="4.92843"/>
<path d="M4.68024 47.0558C3.89624 47.0558 3.1756 46.8737 2.5183 46.5094C1.86893 46.1451 1.35022 45.6383 0.962182 44.9889C0.582061 44.3316 0.392 43.5951 0.392 42.7794C0.392 41.9638 0.582061 41.2312 0.962182 40.5819C1.35022 39.9325 1.86893 39.4257 2.5183 39.0614C3.1756 38.6971 3.89624 38.515 4.68024 38.515C5.46424 38.515 6.18093 38.6971 6.8303 39.0614C7.4876 39.4257 8.00234 39.9325 8.37455 40.5819C8.75467 41.2312 8.94473 41.9638 8.94473 42.7794C8.94473 43.5951 8.75467 44.3316 8.37455 44.9889C7.99443 45.6383 7.47968 46.1451 6.8303 46.5094C6.18093 46.8737 5.46424 47.0558 4.68024 47.0558ZM4.68024 45.2027C5.34546 45.2027 5.87604 44.981 6.272 44.5375C6.67588 44.094 6.87782 43.508 6.87782 42.7794C6.87782 42.043 6.67588 41.4569 6.272 41.0214C5.87604 40.5779 5.34546 40.3562 4.68024 40.3562C4.00711 40.3562 3.46861 40.5739 3.06473 41.0095C2.66877 41.4451 2.47079 42.035 2.47079 42.7794C2.47079 43.5159 2.66877 44.1059 3.06473 44.5494C3.46861 44.9849 4.00711 45.2027 4.68024 45.2027ZM19.5184 38.6337V46.9727H17.4872V41.9717L15.6222 46.9727H13.9829L12.1061 41.9598V46.9727H10.0748V38.6337H12.4743L14.8144 44.4068L17.1308 38.6337H19.5184ZM26.1702 45.4997H23.0579L22.559 46.9727H20.4327L23.4499 38.6337H25.8019L28.8191 46.9727H26.6691L26.1702 45.4997ZM25.6475 43.9317L24.6141 40.8788L23.5925 43.9317H25.6475ZM36.9597 38.6337V46.9727H34.9285V43.5397H31.7687V46.9727H29.7374V38.6337H31.7687V41.9004H34.9285V38.6337H36.9597ZM43.6171 45.4997H40.5049L40.006 46.9727H37.8797L40.8969 38.6337H43.2489L46.2661 46.9727H44.1161L43.6171 45.4997ZM43.0945 43.9317L42.061 40.8788L41.0395 43.9317H43.0945ZM54.6443 46.9727H52.613L49.2157 41.8291V46.9727H47.1844V38.6337H49.2157L52.613 43.801V38.6337H54.6443V46.9727Z" fill="#004665"/>
</svg>
